<svg width="320" height="240" viewBox="0 0 320 240" fill="none" xmlns="http://www.w3.org/2000/svg">
<rect width="320" height="240" fill="white"/>
<g filter="url(#filter0_d)">
<path d="M32 120.429C32.9093 120.429 33.7814 120.067 34.4244 119.424C35.0673 118.781 35.4286 117.909 35.4286 117M45.7143 129C45.7143 128.091 46.0755 127.219 46.7185 126.576C47.3615 125.933 48.2335 125.571 49.1429 125.571M32 118.714C32 118.26 32.1806 117.824 32.5021 117.502C32.8236 117.181 33.2596 117 33.7143 117H47.4286C47.8832 117 48.3193 117.181 48.6408 117.502C48.9622 117.824 49.1429 118.26 49.1429 118.714V127.286C49.1429 127.74 48.9622 128.176 48.6408 128.498C48.3193 128.819 47.8832 129 47.4286 129H33.7143C33.2596 129 32.8236 128.819 32.5021 128.498C32.1806 128.176 32 127.74 32 127.286V118.714ZM43.1429 123C43.1429 124.42 41.9916 125.571 40.5714 125.571C39.1513 125.571 38 124.42 38 123C38 121.58 39.1513 120.429 40.5714 120.429C41.9916 120.429 43.1429 121.58 43.1429 123Z" stroke="#808080" stroke-linecap="round" stroke-linejoin="round"/>
</g>
<g filter="url(#filter1_d)">
<path d="M60.1191 124.549H58.1152V128H56.9844V119.469H59.8086C60.7695 119.469 61.5078 119.688 62.0234 120.125C62.543 120.562 62.8027 121.199 62.8027 122.035C62.8027 122.566 62.6582 123.029 62.3691 123.424C62.084 123.818 61.6855 124.113 61.1738 124.309L63.1777 127.93V128H61.9707L60.1191 124.549ZM58.1152 123.629H59.8438C60.4023 123.629 60.8457 123.484 61.1738 123.195C61.5059 122.906 61.6719 122.52 61.6719 122.035C61.6719 121.508 61.5137 121.104 61.1973 120.822C60.8848 120.541 60.4316 120.398 59.8379 120.395H58.1152V123.629ZM66.8457 128.117C65.9863 128.117 65.2871 127.836 64.748 127.273C64.209 126.707 63.9395 125.951 63.9395 125.006V124.807C63.9395 124.178 64.0586 123.617 64.2969 123.125C64.5391 122.629 64.875 122.242 65.3047 121.965C65.7383 121.684 66.207 121.543 66.7109 121.543C67.5352 121.543 68.1758 121.814 68.6328 122.357C69.0898 122.9 69.3184 123.678 69.3184 124.689V125.141H65.0234C65.0391 125.766 65.2207 126.271 65.5684 126.658C65.9199 127.041 66.3652 127.232 66.9043 127.232C67.2871 127.232 67.6113 127.154 67.877 126.998C68.1426 126.842 68.375 126.635 68.5742 126.377L69.2363 126.893C68.7051 127.709 67.9082 128.117 66.8457 128.117ZM66.7109 122.434C66.2734 122.434 65.9062 122.594 65.6094 122.914C65.3125 123.23 65.1289 123.676 65.0586 124.25H68.2344V124.168C68.2031 123.617 68.0547 123.191 67.7891 122.891C67.5234 122.586 67.1641 122.434 66.7109 122.434ZM73.1211 127.232C73.5078 127.232 73.8457 127.115 74.1348 126.881C74.4238 126.646 74.584 126.354 74.6152 126.002H75.6406C75.6211 126.365 75.4961 126.711 75.2656 127.039C75.0352 127.367 74.7266 127.629 74.3398 127.824C73.957 128.02 73.5508 128.117 73.1211 128.117C72.2578 128.117 71.5703 127.83 71.0586 127.256C70.5508 126.678 70.2969 125.889 70.2969 124.889V124.707C70.2969 124.09 70.4102 123.541 70.6367 123.061C70.8633 122.58 71.1875 122.207 71.6094 121.941C72.0352 121.676 72.5371 121.543 73.1152 121.543C73.8262 121.543 74.416 121.756 74.8848 122.182C75.3574 122.607 75.6094 123.16 75.6406 123.84H74.6152C74.584 123.43 74.4277 123.094 74.1465 122.832C73.8691 122.566 73.5254 122.434 73.1152 122.434C72.5645 122.434 72.1367 122.633 71.832 123.031C71.5312 123.426 71.3809 123.998 71.3809 124.748V124.953C71.3809 125.684 71.5312 126.246 71.832 126.641C72.1328 127.035 72.5625 127.232 73.1211 127.232ZM79.4902 128.117C78.6309 128.117 77.9316 127.836 77.3926 127.273C76.8535 126.707 76.584 125.951 76.584 125.006V124.807C76.584 124.178 76.7031 123.617 76.9414 123.125C77.1836 122.629 77.5195 122.242 77.9492 121.965C78.3828 121.684 78.8516 121.543 79.3555 121.543C80.1797 121.543 80.8203 121.814 81.2773 122.357C81.7344 122.9 81.9629 123.678 81.9629 124.689V125.141H77.668C77.6836 125.766 77.8652 126.271 78.2129 126.658C78.5645 127.041 79.0098 127.232 79.5488 127.232C79.9316 127.232 80.2559 127.154 80.5215 126.998C80.7871 126.842 81.0195 126.635 81.2188 126.377L81.8809 126.893C81.3496 127.709 80.5527 128.117 79.4902 128.117ZM79.3555 122.434C78.918 122.434 78.5508 122.594 78.2539 122.914C77.957 123.23 77.7734 123.676 77.7031 124.25H80.8789V124.168C80.8477 123.617 80.6992 123.191 80.4336 122.891C80.168 122.586 79.8086 122.434 79.3555 122.434ZM84.4004 128H83.3164V121.66H84.4004V128ZM83.2285 119.979C83.2285 119.803 83.2812 119.654 83.3867 119.533C83.4961 119.412 83.6562 119.352 83.8672 119.352C84.0781 119.352 84.2383 119.412 84.3477 119.533C84.457 119.654 84.5117 119.803 84.5117 119.979C84.5117 120.154 84.457 120.301 84.3477 120.418C84.2383 120.535 84.0781 120.594 83.8672 120.594C83.6562 120.594 83.4961 120.535 83.3867 120.418C83.2812 120.301 83.2285 120.154 83.2285 119.979ZM87.6113 120.125V121.66H88.7949V122.498H87.6113V126.43C87.6113 126.684 87.6641 126.875 87.7695 127.004C87.875 127.129 88.0547 127.191 88.3086 127.191C88.4336 127.191 88.6055 127.168 88.8242 127.121V128C88.5391 128.078 88.2617 128.117 87.9922 128.117C87.5078 128.117 87.1426 127.971 86.8965 127.678C86.6504 127.385 86.5273 126.969 86.5273 126.43V122.498H85.373V121.66H86.5273V120.125H87.6113ZM93.9805 128C93.918 127.875 93.8672 127.652 93.8281 127.332C93.3242 127.855 92.7227 128.117 92.0234 128.117C91.3984 128.117 90.8848 127.941 90.4824 127.59C90.084 127.234 89.8848 126.785 89.8848 126.242C89.8848 125.582 90.1348 125.07 90.6348 124.707C91.1387 124.34 91.8457 124.156 92.7559 124.156H93.8105V123.658C93.8105 123.279 93.6973 122.979 93.4707 122.756C93.2441 122.529 92.9102 122.416 92.4688 122.416C92.082 122.416 91.7578 122.514 91.4961 122.709C91.2344 122.904 91.1035 123.141 91.1035 123.418H90.0137C90.0137 123.102 90.125 122.797 90.3477 122.504C90.5742 122.207 90.8789 121.973 91.2617 121.801C91.6484 121.629 92.0723 121.543 92.5332 121.543C93.2637 121.543 93.8359 121.727 94.25 122.094C94.6641 122.457 94.8789 122.959 94.8945 123.6V126.518C94.8945 127.1 94.9688 127.562 95.1172 127.906V128H93.9805ZM92.1816 127.174C92.5215 127.174 92.8438 127.086 93.1484 126.91C93.4531 126.734 93.6738 126.506 93.8105 126.225V124.924H92.9609C91.6328 124.924 90.9688 125.312 90.9688 126.09C90.9688 126.43 91.082 126.695 91.3086 126.887C91.5352 127.078 91.8262 127.174 92.1816 127.174Z" fill="#808080"/>
</g>
<g filter="url(#filter2_d)">
<path d="M58.4434 161.469L61.2324 168.43L64.0215 161.469H65.4805V170H64.3555V166.678L64.4609 163.092L61.6602 170H60.7988L58.0039 163.109L58.1152 166.678V170H56.9902V161.469H58.4434ZM69.9277 170.117C69.0684 170.117 68.3691 169.836 67.8301 169.273C67.291 168.707 67.0215 167.951 67.0215 167.006V166.807C67.0215 166.178 67.1406 165.617 67.3789 165.125C67.6211 164.629 67.957 164.242 68.3867 163.965C68.8203 163.684 69.2891 163.543 69.793 163.543C70.6172 163.543 71.2578 163.814 71.7148 164.357C72.1719 164.9 72.4004 165.678 72.4004 166.689V167.141H68.1055C68.1211 167.766 68.3027 168.271 68.6504 168.658C69.002 169.041 69.4473 169.232 69.9863 169.232C70.3691 169.232 70.6934 169.154 70.959 168.998C71.2246 168.842 71.457 168.635 71.6562 168.377L72.3184 168.893C71.7871 169.709 70.9902 170.117 69.9277 170.117ZM69.793 164.434C69.3555 164.434 68.9883 164.594 68.6914 164.914C68.3945 165.23 68.2109 165.676 68.1406 166.25H71.3164V166.168C71.2852 165.617 71.1367 165.191 70.8711 164.891C70.6055 164.586 70.2461 164.434 69.793 164.434ZM75.1309 162.125V163.66H76.3145V164.498H75.1309V168.43C75.1309 168.684 75.1836 168.875 75.2891 169.004C75.3945 169.129 75.5742 169.191 75.8281 169.191C75.9531 169.191 76.125 169.168 76.3438 169.121V170C76.0586 170.078 75.7812 170.117 75.5117 170.117C75.0273 170.117 74.6621 169.971 74.416 169.678C74.1699 169.385 74.0469 168.969 74.0469 168.43V164.498H72.8926V163.66H74.0469V162.125H75.1309ZM81.5 170C81.4375 169.875 81.3867 169.652 81.3477 169.332C80.8438 169.855 80.2422 170.117 79.543 170.117C78.918 170.117 78.4043 169.941 78.002 169.59C77.6035 169.234 77.4043 168.785 77.4043 168.242C77.4043 167.582 77.6543 167.07 78.1543 166.707C78.6582 166.34 79.3652 166.156 80.2754 166.156H81.3301V165.658C81.3301 165.279 81.2168 164.979 80.9902 164.756C80.7637 164.529 80.4297 164.416 79.9883 164.416C79.6016 164.416 79.2773 164.514 79.0156 164.709C78.7539 164.904 78.623 165.141 78.623 165.418H77.5332C77.5332 165.102 77.6445 164.797 77.8672 164.504C78.0938 164.207 78.3984 163.973 78.7812 163.801C79.168 163.629 79.5918 163.543 80.0527 163.543C80.7832 163.543 81.3555 163.727 81.7695 164.094C82.1836 164.457 82.3984 164.959 82.4141 165.6V168.518C82.4141 169.1 82.4883 169.562 82.6367 169.906V170H81.5ZM79.7012 169.174C80.041 169.174 80.3633 169.086 80.668 168.91C80.9727 168.734 81.1934 168.506 81.3301 168.225V166.924H80.4805C79.1523 166.924 78.4883 167.312 78.4883 168.09C78.4883 168.43 78.6016 168.695 78.8281 168.887C79.0547 169.078 79.3457 169.174 79.7012 169.174Z" fill="#808080"/>
</g>
<g filter="url(#filter3_d)">
<path d="M43.5375 158.578C43.5377 158.464 43.504 158.352 43.4406 158.257C43.3773 158.162 43.2871 158.088 43.1815 158.044C43.076 158 42.9598 157.989 42.8478 158.011C42.7358 158.033 42.6329 158.089 42.5522 158.169L40.2446 160.477C40.191 160.531 40.1486 160.594 40.1197 160.665C40.0908 160.735 40.076 160.81 40.0761 160.886V164.108L39.2211 164.962C39.0501 164.917 38.8709 164.911 38.6974 164.946C38.5239 164.981 38.3607 165.055 38.2204 165.163C38.08 165.27 37.9663 165.409 37.888 165.568C37.8096 165.726 37.7688 165.901 37.7685 166.078C37.7687 166.242 37.804 166.404 37.8719 166.554C37.9399 166.703 38.0389 166.836 38.1624 166.944C38.286 167.052 38.4311 167.133 38.5883 167.18C38.7454 167.228 38.9108 167.241 39.0736 167.22C39.2363 167.198 39.3926 167.142 39.5319 167.056C39.6713 166.969 39.7906 166.853 39.8818 166.717C39.9729 166.58 40.0339 166.426 40.0607 166.264C40.0874 166.102 40.0793 165.936 40.0369 165.778L40.8919 164.924H44.1144C44.1903 164.924 44.2653 164.909 44.3354 164.88C44.4055 164.851 44.4692 164.809 44.5229 164.755L46.8305 162.448C46.9114 162.367 46.9665 162.264 46.9889 162.152C47.0112 162.04 46.9998 161.924 46.956 161.818C46.9123 161.713 46.8382 161.623 46.7431 161.559C46.6481 161.496 46.5363 161.462 46.4221 161.462H43.5375V158.578ZM45.7805 165.129C45.9791 166.566 45.7214 168.029 45.0438 169.311C44.3663 170.593 43.3031 171.631 42.0044 172.276C40.7057 172.922 39.237 173.143 37.8056 172.909C36.3743 172.675 35.0526 171.997 34.0272 170.972C33.0017 169.946 32.3243 168.624 32.0905 167.193C31.8568 165.761 32.0784 164.293 32.7243 162.994C33.3701 161.696 34.4075 160.633 35.6899 159.955C36.9724 159.278 38.4352 159.021 39.8719 159.219L39.43 159.661C39.2691 159.822 39.1414 160.013 39.0543 160.223C38.9672 160.433 38.9224 160.658 38.9223 160.886C37.8954 160.886 36.8915 161.19 36.0377 161.761C35.1839 162.331 34.5184 163.142 34.1254 164.091C33.7324 165.039 33.6296 166.083 33.8299 167.091C34.0303 168.098 34.5248 169.023 35.2509 169.749C35.977 170.475 36.9022 170.97 37.9094 171.17C38.9165 171.37 39.9605 171.268 40.9092 170.875C41.858 170.482 42.6689 169.816 43.2394 168.962C43.8099 168.108 44.1144 167.105 44.1144 166.078C44.5733 166.077 45.0132 165.895 45.3375 165.57L45.7805 165.129ZM38.9223 162.039C38.1236 162.039 37.3428 162.276 36.6787 162.72C36.0146 163.164 35.497 163.794 35.1914 164.532C34.8857 165.27 34.8057 166.082 34.9616 166.866C35.1174 167.649 35.502 168.368 36.0668 168.933C36.6315 169.498 37.3511 169.883 38.1345 170.038C38.9178 170.194 39.7298 170.114 40.4677 169.809C41.2056 169.503 41.8363 168.985 42.2801 168.321C42.7238 167.657 42.9606 166.876 42.9606 166.078H41.3695L41.2253 166.222C41.1976 166.665 41.0425 167.091 40.7787 167.448C40.515 167.806 40.1537 168.079 39.7382 168.236C39.3228 168.393 38.8709 168.427 38.4367 168.334C38.0025 168.24 37.6045 168.024 37.2905 167.71C36.9764 167.395 36.7597 166.997 36.6662 166.563C36.5728 166.129 36.6066 165.677 36.7637 165.262C36.9207 164.846 37.1943 164.485 37.5517 164.221C37.909 163.957 38.3348 163.802 38.7781 163.775L38.9223 163.63V162.039Z" fill="#808080"/>
</g>
<g filter="url(#filter4_d)">
<path d="M56.9902 212V203.469H59.3984C60.1406 203.469 60.7969 203.633 61.3672 203.961C61.9375 204.289 62.377 204.756 62.6855 205.361C62.998 205.967 63.1562 206.662 63.1602 207.447V207.992C63.1602 208.797 63.0039 209.502 62.6914 210.107C62.3828 210.713 61.9395 211.178 61.3613 211.502C60.7871 211.826 60.1172 211.992 59.3516 212H56.9902ZM58.1152 204.395V211.08H59.2988C60.166 211.08 60.8398 210.811 61.3203 210.271C61.8047 209.732 62.0469 208.965 62.0469 207.969V207.471C62.0469 206.502 61.8184 205.75 61.3613 205.215C60.9082 204.676 60.2637 204.402 59.4277 204.395H58.1152ZM65.873 212H64.7891V205.66H65.873V212ZM64.7012 203.979C64.7012 203.803 64.7539 203.654 64.8594 203.533C64.9688 203.412 65.1289 203.352 65.3398 203.352C65.5508 203.352 65.7109 203.412 65.8203 203.533C65.9297 203.654 65.9844 203.803 65.9844 203.979C65.9844 204.154 65.9297 204.301 65.8203 204.418C65.7109 204.535 65.5508 204.594 65.3398 204.594C65.1289 204.594 64.9688 204.535 64.8594 204.418C64.7539 204.301 64.7012 204.154 64.7012 203.979ZM68.1465 212V206.498H67.1445V205.66H68.1465V205.01C68.1465 204.33 68.3281 203.805 68.6914 203.434C69.0547 203.062 69.5684 202.877 70.2324 202.877C70.4824 202.877 70.7305 202.91 70.9766 202.977L70.918 203.855C70.7344 203.82 70.5391 203.803 70.332 203.803C69.9805 203.803 69.709 203.906 69.5176 204.113C69.3262 204.316 69.2305 204.609 69.2305 204.992V205.66H70.584V206.498H69.2305V212H68.1465ZM74.2754 212.117C73.416 212.117 72.7168 211.836 72.1777 211.273C71.6387 210.707 71.3691 209.951 71.3691 209.006V208.807C71.3691 208.178 71.4883 207.617 71.7266 207.125C71.9688 206.629 72.3047 206.242 72.7344 205.965C73.168 205.684 73.6367 205.543 74.1406 205.543C74.9648 205.543 75.6055 205.814 76.0625 206.357C76.5195 206.9 76.748 207.678 76.748 208.689V209.141H72.4531C72.4688 209.766 72.6504 210.271 72.998 210.658C73.3496 211.041 73.7949 211.232 74.334 211.232C74.7168 211.232 75.041 211.154 75.3066 210.998C75.5723 210.842 75.8047 210.635 76.0039 210.377L76.666 210.893C76.1348 211.709 75.3379 212.117 74.2754 212.117ZM74.1406 206.434C73.7031 206.434 73.3359 206.594 73.0391 206.914C72.7422 207.23 72.5586 207.676 72.4883 208.25H75.6641V208.168C75.6328 207.617 75.4844 207.191 75.2188 206.891C74.9531 206.586 74.5938 206.434 74.1406 206.434ZM81.0723 206.633C80.9082 206.605 80.7305 206.592 80.5391 206.592C79.8281 206.592 79.3457 206.895 79.0918 207.5V212H78.0078V205.66H79.0625L79.0801 206.393C79.4355 205.826 79.9395 205.543 80.5918 205.543C80.8027 205.543 80.9629 205.57 81.0723 205.625V206.633ZM84.5879 212.117C83.7285 212.117 83.0293 211.836 82.4902 211.273C81.9512 210.707 81.6816 209.951 81.6816 209.006V208.807C81.6816 208.178 81.8008 207.617 82.0391 207.125C82.2812 206.629 82.6172 206.242 83.0469 205.965C83.4805 205.684 83.9492 205.543 84.4531 205.543C85.2773 205.543 85.918 205.814 86.375 206.357C86.832 206.9 87.0605 207.678 87.0605 208.689V209.141H82.7656C82.7812 209.766 82.9629 210.271 83.3105 210.658C83.6621 211.041 84.1074 211.232 84.6465 211.232C85.0293 211.232 85.3535 211.154 85.6191 210.998C85.8848 210.842 86.1172 210.635 86.3164 210.377L86.9785 210.893C86.4473 211.709 85.6504 212.117 84.5879 212.117ZM84.4531 206.434C84.0156 206.434 83.6484 206.594 83.3516 206.914C83.0547 207.23 82.8711 207.676 82.8008 208.25H85.9766V208.168C85.9453 207.617 85.7969 207.191 85.5312 206.891C85.2656 206.586 84.9062 206.434 84.4531 206.434ZM89.3457 205.66L89.3809 206.457C89.8652 205.848 90.498 205.543 91.2793 205.543C92.6191 205.543 93.2949 206.299 93.3066 207.811V212H92.2227V207.805C92.2188 207.348 92.1133 207.01 91.9062 206.791C91.7031 206.572 91.3848 206.463 90.9512 206.463C90.5996 206.463 90.291 206.557 90.0254 206.744C89.7598 206.932 89.5527 207.178 89.4043 207.482V212H88.3203V205.66H89.3457ZM97.4844 211.232C97.8711 211.232 98.209 211.115 98.498 210.881C98.7871 210.646 98.9473 210.354 98.9785 210.002H100.004C99.9844 210.365 99.8594 210.711 99.6289 211.039C99.3984 211.367 99.0898 211.629 98.7031 211.824C98.3203 212.02 97.9141 212.117 97.4844 212.117C96.6211 212.117 95.9336 211.83 95.4219 211.256C94.9141 210.678 94.6602 209.889 94.6602 208.889V208.707C94.6602 208.09 94.7734 207.541 95 207.061C95.2266 206.58 95.5508 206.207 95.9727 205.941C96.3984 205.676 96.9004 205.543 97.4785 205.543C98.1895 205.543 98.7793 205.756 99.248 206.182C99.7207 206.607 99.9727 207.16 100.004 207.84H98.9785C98.9473 207.43 98.791 207.094 98.5098 206.832C98.2324 206.566 97.8887 206.434 97.4785 206.434C96.9277 206.434 96.5 206.633 96.1953 207.031C95.8945 207.426 95.7441 207.998 95.7441 208.748V208.953C95.7441 209.684 95.8945 210.246 96.1953 210.641C96.4961 211.035 96.9258 211.232 97.4844 211.232ZM97.6602 212.053L97.5898 212.357C98.1875 212.463 98.4863 212.801 98.4863 213.371C98.4863 213.75 98.3301 214.049 98.0176 214.268C97.7051 214.49 97.2695 214.602 96.7109 214.602L96.6699 213.975C96.9785 213.975 97.2168 213.924 97.3848 213.822C97.5566 213.721 97.6426 213.578 97.6426 213.395C97.6426 213.223 97.5801 213.096 97.4551 213.014C97.3301 212.932 97.0762 212.873 96.6934 212.838L96.8809 212.053H97.6602ZM105.137 212C105.074 211.875 105.023 211.652 104.984 211.332C104.48 211.855 103.879 212.117 103.18 212.117C102.555 212.117 102.041 211.941 101.639 211.59C101.24 211.234 101.041 210.785 101.041 210.242C101.041 209.582 101.291 209.07 101.791 208.707C102.295 208.34 103.002 208.156 103.912 208.156H104.967V207.658C104.967 207.279 104.854 206.979 104.627 206.756C104.4 206.529 104.066 206.416 103.625 206.416C103.238 206.416 102.914 206.514 102.652 206.709C102.391 206.904 102.26 207.141 102.26 207.418H101.17C101.17 207.102 101.281 206.797 101.504 206.504C101.73 206.207 102.035 205.973 102.418 205.801C102.805 205.629 103.229 205.543 103.689 205.543C104.42 205.543 104.992 205.727 105.406 206.094C105.82 206.457 106.035 206.959 106.051 207.6V210.518C106.051 211.1 106.125 211.562 106.273 211.906V212H105.137ZM103.338 211.174C103.678 211.174 104 211.086 104.305 210.91C104.609 210.734 104.83 210.506 104.967 210.225V208.924H104.117C102.789 208.924 102.125 209.312 102.125 210.09C102.125 210.43 102.238 210.695 102.465 210.887C102.691 211.078 102.982 211.174 103.338 211.174Z" fill="#808080"/>
</g>
<g filter="url(#filter5_d)">
<path d="M34.3684 210.25L32 212.7V205.667H34.3684V210.25ZM38.3158 208.717L37.0763 207.6L35.9474 208.7V202.333H38.3158V208.717ZM42.2632 207.333L39.8947 209.833V199H42.2632V207.333ZM44.4816 207.175L43.0526 205.667H47V209.833L45.5868 208.342L39.8947 214.3L37.1553 211.783L34.1711 214.833H32L37.1079 209.55L39.8947 212.033" fill="#808080"/>
</g>
<defs>
<filter id="filter0_d" x="15.5" y="104.5" width="50.1429" height="45" filterUnits="userSpaceOnUse" color-interpolation-filters="sRGB">
<feFlood flood-opacity="0" result="BackgroundImageFix"/>
<feColorMatrix in="SourceAlpha" type="matrix" values="0 0 0 0 0 0 0 0 0 0 0 0 0 0 0 0 0 0 127 0"/>
<feOffset dy="4"/>
<feGaussianBlur stdDeviation="8"/>
<feColorMatrix type="matrix" values="0 0 0 0 0 0 0 0 0 0 0 0 0 0 0 0 0 0 0.25 0"/>
<feBlend mode="normal" in2="BackgroundImageFix" result="effect1_dropShadow"/>
<feBlend mode="normal" in="SourceGraphic" in2="effect1_dropShadow" result="shape"/>
</filter>
<filter id="filter1_d" x="40.9844" y="107.352" width="70.1328" height="40.7656" filterUnits="userSpaceOnUse" color-interpolation-filters="sRGB">
<feFlood flood-opacity="0" result="BackgroundImageFix"/>
<feColorMatrix in="SourceAlpha" type="matrix" values="0 0 0 0 0 0 0 0 0 0 0 0 0 0 0 0 0 0 127 0"/>
<feOffset dy="4"/>
<feGaussianBlur stdDeviation="8"/>
<feColorMatrix type="matrix" values="0 0 0 0 0 0 0 0 0 0 0 0 0 0 0 0 0 0 0.25 0"/>
<feBlend mode="normal" in2="BackgroundImageFix" result="effect1_dropShadow"/>
<feBlend mode="normal" in="SourceGraphic" in2="effect1_dropShadow" result="shape"/>
</filter>
<filter id="filter2_d" x="40.9902" y="149.469" width="57.6465" height="40.6484" filterUnits="userSpaceOnUse" color-interpolation-filters="sRGB">
<feFlood flood-opacity="0" result="BackgroundImageFix"/>
<feColorMatrix in="SourceAlpha" type="matrix" values="0 0 0 0 0 0 0 0 0 0 0 0 0 0 0 0 0 0 127 0"/>
<feOffset dy="4"/>
<feGaussianBlur stdDeviation="8"/>
<feColorMatrix type="matrix" values="0 0 0 0 0 0 0 0 0 0 0 0 0 0 0 0 0 0 0.25 0"/>
<feBlend mode="normal" in2="BackgroundImageFix" result="effect1_dropShadow"/>
<feBlend mode="normal" in="SourceGraphic" in2="effect1_dropShadow" result="shape"/>
</filter>
<filter id="filter3_d" x="16" y="146" width="47" height="46.9998" filterUnits="userSpaceOnUse" color-interpolation-filters="sRGB">
<feFlood flood-opacity="0" result="BackgroundImageFix"/>
<feColorMatrix in="SourceAlpha" type="matrix" values="0 0 0 0 0 0 0 0 0 0 0 0 0 0 0 0 0 0 127 0"/>
<feOffset dy="4"/>
<feGaussianBlur stdDeviation="8"/>
<feColorMatrix type="matrix" values="0 0 0 0 0 0 0 0 0 0 0 0 0 0 0 0 0 0 0.25 0"/>
<feBlend mode="normal" in2="BackgroundImageFix" result="effect1_dropShadow"/>
<feBlend mode="normal" in="SourceGraphic" in2="effect1_dropShadow" result="shape"/>
</filter>
<filter id="filter4_d" x="40.9902" y="190.877" width="81.2832" height="43.7246" filterUnits="userSpaceOnUse" color-interpolation-filters="sRGB">
<feFlood flood-opacity="0" result="BackgroundImageFix"/>
<feColorMatrix in="SourceAlpha" type="matrix" values="0 0 0 0 0 0 0 0 0 0 0 0 0 0 0 0 0 0 127 0"/>
<feOffset dy="4"/>
<feGaussianBlur stdDeviation="8"/>
<feColorMatrix type="matrix" values="0 0 0 0 0 0 0 0 0 0 0 0 0 0 0 0 0 0 0.25 0"/>
<feBlend mode="normal" in2="BackgroundImageFix" result="effect1_dropShadow"/>
<feBlend mode="normal" in="SourceGraphic" in2="effect1_dropShadow" result="shape"/>
</filter>
<filter id="filter5_d" x="16" y="187" width="47" height="47.8333" filterUnits="userSpaceOnUse" color-interpolation-filters="sRGB">
<feFlood flood-opacity="0" result="BackgroundImageFix"/>
<feColorMatrix in="SourceAlpha" type="matrix" values="0 0 0 0 0 0 0 0 0 0 0 0 0 0 0 0 0 0 127 0"/>
<feOffset dy="4"/>
<feGaussianBlur stdDeviation="8"/>
<feColorMatrix type="matrix" values="0 0 0 0 0 0 0 0 0 0 0 0 0 0 0 0 0 0 0.25 0"/>
<feBlend mode="normal" in2="BackgroundImageFix" result="effect1_dropShadow"/>
<feBlend mode="normal" in="SourceGraphic" in2="effect1_dropShadow" result="shape"/>
</filter>
</defs>
</svg>
